<?xml version="1.0" standalone="no"?>
<!DOCTYPE svg PUBLIC "-//W3C//DTD SVG 20010904//EN"
 "http://www.w3.org/TR/2001/REC-SVG-20010904/DTD/svg10.dtd">
<svg version="1.0" xmlns="http://www.w3.org/2000/svg"
 width="342.000000pt" height="342.000000pt" viewBox="0 0 342.000000 342.000000"
 preserveAspectRatio="xMidYMid meet">

<g transform="translate(0.000000,342.000000) scale(0.100000,-0.100000)"
fill="#000000" stroke="none">
<path d="M1190 3276 c-27 -10 -36 -19 -38 -41 -3 -25 -1 -27 20 -21 57 18 103
23 131 15 37 -10 47 -24 47 -66 l0 -32 -54 6 c-102 11 -166 -32 -166 -110 0
-62 38 -97 105 -97 32 0 64 8 89 21 l38 20 14 -20 c13 -17 18 -19 40 -9 20 9
24 16 18 32 -3 12 -9 74 -13 138 -6 111 -8 119 -33 145 -24 24 -37 28 -95 30
-38 1 -83 -3 -103 -11z m160 -220 c0 -44 -37 -76 -89 -76 -43 0 -61 14 -61 49
0 43 26 61 92 61 l58 0 0 -34z"/>
<path d="M2054 3276 c-102 -45 -78 -152 43 -190 92 -29 116 -61 68 -92 -25
-16 -97 -16 -152 1 -20 6 -23 4 -23 -18 0 -20 7 -28 33 -36 87 -28 162 -18
209 29 59 60 21 134 -86 165 -89 26 -111 65 -52 94 24 11 39 11 78 2 65 -15
68 -14 68 10 0 42 -118 64 -186 35z"/>
<path d="M1462 3263 c3 -10 27 -86 54 -170 46 -145 49 -151 76 -155 16 -3 35
0 42 6 7 6 26 62 42 124 16 61 31 112 34 112 4 0 19 -54 35 -120 l29 -121 41
3 40 3 52 155 c28 85 52 161 52 168 1 7 -12 12 -33 12 -33 0 -34 -2 -51 -62
-42 -154 -58 -200 -65 -187 -4 8 -20 67 -34 132 l-28 117 -33 0 c-42 0 -45 -4
-80 -148 -16 -61 -30 -110 -32 -108 -2 2 -19 59 -36 127 l-33 124 -38 3 c-33
3 -38 1 -34 -15z"/>
<path d="M300 2637 l0 -463 93 -51 c50 -28 155 -85 232 -126 77 -42 228 -123
335 -181 l195 -106 3 462 c1 254 -1 465 -5 469 -10 9 -841 459 -848 459 -3 0
-5 -208 -5 -463z"/>
<path d="M1260 2116 l0 -465 118 -64 c241 -133 733 -397 738 -397 2 0 4 209 4
465 l0 465 -52 26 c-29 15 -205 109 -391 211 -187 101 -357 193 -378 204 l-39
19 0 -464z"/>
<path d="M2648 2348 l-428 -231 0 -465 c0 -367 3 -463 13 -459 22 8 832 448
840 456 4 4 6 215 5 469 l-3 461 -427 -231z"/>
<path d="M1260 1076 l0 -464 168 -90 c92 -50 244 -132 337 -182 94 -51 212
-115 263 -142 l92 -50 0 465 0 466 -127 69 c-456 248 -723 392 -728 392 -3 0
-5 -209 -5 -464z"/>
</g>
</svg>
